# xmcd
#
# Track frame offsets: 
#        150
#        9624
#        22979
#        38432
#        47953
#        59721
#        71332
#        83815
#        97126
#        109056
#        121812
#        135918
#        149241
#        160495
#        169947
#        181200
#        191824
#        202827
#        216164
#        230197
#        240410
#        254542
#        267686
#        279669
#
# Disc length: 3885 seconds
#
# Revision: 1
# Processed by: cddbd v1.5.2PL0 Copyright (c) Steve Scherf et al.
# Submitted via: ExactAudioCopy v1.3
#
DISCID=6b0f2b18
DTITLE=Various Artist - 1967: The Year Pop Divided
DYEAR=1967
DGENRE=Rock
TTITLE0=THE BYRDS So You Want To Be A Rock N' Roll Star MONO
TTITLE1=THE SPENCER DAVIS GROUP I'm A Man MONO
TTITLE2=SONNY and CHER The Beat Goes On MONO
TTITLE3=THE ATTACK Try It MONO
TTITLE4=THE THIRTEENTH FLOOR ELEVATORS Levitation MONO
TTITLE5=THE SHADOWS OF KNIGHT The Behemoth MONO
TTITLE6=THE ACTION Never Ever MONO
TTITLE7=GLADYS KNIGHT and THE PIPS Take Me In Your Arms And Love Me
TTITLE8=REX GARVIN and THE MIGHTY CRAVERS Believe It Or Not MONO
TTITLE9=THE SOFT MACHINE Feelin' Reelin' Squeelin' MONO
TTITLE10=THE MOVE I Can Hear The Grass Grow MONO
TTITLE11=JOE TEX Show Me MONO
TTITLE12=THE YOUNG RASCALS Groovin' MONO
TTITLE13=GENE CLARK So You Say You Lost Your Baby MONO
TTITLE14=THE SEARCHERS Western Union MONO
TTITLE15=THE BAR-KAYS Soul Finger MONO
TTITLE16=ARETHA FRANKLIN Respect MONO
TTITLE17=TERRY REID WITH PETER JAY'S JAYWALKERS The Hand Don't Fit The
TTITLE17=Glove MONO
TTITLE18=THE TROGGS Night Of The Long Grass MONO
TTITLE19=THE THIRD BARDO I'm Five Years Ahead Of My Time MONO
TTITLE20=DYKE and THE BLAZERS So Sharp MONO
TTITLE21=JAMES BROWN and THE FAMOUS FLAMES Cold Sweat (Part 1) MONO
TTITLE22=THE BUFFALO SPRINGFIELD Mr. Soul MONO
TTITLE23=THE MONKEES Alternate Title (A.K.A.Randy Scouse Git) MONO
EXTD=
EXTT0=
EXTT1=
EXTT2=
EXTT3=
EXTT4=
EXTT5=
EXTT6=
EXTT7=
EXTT8=
EXTT9=
EXTT10=
EXTT11=
EXTT12=
EXTT13=
EXTT14=
EXTT15=
EXTT16=
EXTT17=
EXTT18=
EXTT19=
EXTT20=
EXTT21=
EXTT22=
EXTT23=
PLAYORDER=
